<svg xmlns="http://www.w3.org/2000/svg" shape-rendering="geometricPrecision" text-rendering="geometricPrecision" image-rendering="optimizeQuality" fill-rule="evenodd" clip-rule="evenodd" viewBox="0 0 512 290.775"><path fill="#fff" fill-rule="nonzero" d="M288.799 145.385c0 80.295-64.65 145.39-144.402 145.39C64.645 290.775 0 225.699 0 145.385 0 65.07 64.651 0 144.397 0s144.402 65.089 144.402 145.385zm158.406 0c0 75.588-32.324 136.859-72.198 136.859-39.873 0-72.201-61.29-72.201-136.859 0-75.569 32.328-136.86 72.201-136.86 39.874 0 72.198 61.291 72.198 136.86zm64.795 0c0 67.723-11.374 122.621-25.395 122.621-14.024 0-25.395-54.917-25.395-122.621s11.371-122.619 25.4-122.619c14.027 0 25.39 54.901 25.39 122.619z"/></svg>